# xmcd
#
# Track frame offsets: 
#        150
#        9290
#        23304
#        37513
#        52258
#        70115
#        80767
#        99639
#        113297
#        123107
#        139974
#        164551
#        185323
#        214637
#        236794
#        256216
#
# Disc length: 4231 seconds
#
# Revision: 0
# Processed by: cddbd v1.4PL0 Copyright (c) Steve Scherf et al.
# Submitted via: ExactAudioCopy v0.90b4
#
DISCID=c6108510
DTITLE=Paul Butterfield - Southerland Hotel - Fillmore 1966
DYEAR=1900
DGENRE=
TTITLE0=Come On In
TTITLE1=Born in Chicago
TTITLE2=I Say
TTITLE3=Poor Boy
TTITLE4=Last Night
TTITLE5=Hot Pepper Jam
TTITLE6=1,000 Mile From Nowhere
TTITLE7=I'm Going Home
TTITLE8=Dropping Out
TTITLE9=Baby, Please Don't Go
TTITLE10=Our Love Is Drifting
TTITLE11=Born in Chicago
TTITLE12=Willow Tree
TTITLE13=My Babe
TTITLE14=Kansas City
TTITLE15=Work Song
EXTD=
EXTT0=
EXTT1=
EXTT2=
EXTT3=
EXTT4=
EXTT5=
EXTT6=
EXTT7=
EXTT8=
EXTT9=
EXTT10=
EXTT11=
EXTT12=
EXTT13=
EXTT14=
EXTT15=
PLAYORDER=
